STARTFONT 2.1
FONT -FontForge-Share Tech Mono-Book-R-Normal--30-290-75-75-P-160-ISO10646-1
SIZE 29 75 75
FONTBOUNDINGBOX 31 33 -1 -7
COMMENT "Generated by fontforge, http://fontforge.sourceforge.net"
COMMENT "Copyright (c) 2012, Carrois Type Design, Ralph du Carrois (post@carrois.com www.carrois.com), with Reserved Font Name 'Share'"
STARTPROPERTIES 41
FOUNDRY "FontForge"
FAMILY_NAME "Share Tech Mono"
WEIGHT_NAME "Book"
SLANT "R"
SETWIDTH_NAME "Normal"
ADD_STYLE_NAME ""
PIXEL_SIZE 30
POINT_SIZE 290
RESOLUTION_X 75
RESOLUTION_Y 75
SPACING "P"
AVERAGE_WIDTH 160
CHARSET_REGISTRY "ISO10646"
CHARSET_ENCODING "1"
FONTNAME_REGISTRY ""
CHARSET_COLLECTIONS "ISO10646-1"
FONT_NAME "ShareTechMono-Regular"
FACE_NAME "Share Tech Mono"
COPYRIGHT "Copyright (c) 2012, Carrois Type Design, Ralph du Carrois (post@carrois.com www.carrois.com), with Reserved Font Name 'Share'"
FONT_VERSION "1.003"
FONT_ASCENT 24
FONT_DESCENT 6
UNDERLINE_POSITION -4
UNDERLINE_THICKNESS 2
X_HEIGHT 14
CAP_HEIGHT 20
DEFAULT_CHAR 192
RAW_ASCENT 800
RAW_DESCENT 200
NORM_SPACE 16
RELATIVE_WEIGHT 40
RELATIVE_SETWIDTH 50
SUPERSCRIPT_X 0
SUPERSCRIPT_Y 10
SUPERSCRIPT_SIZE 18
SUBSCRIPT_X 0
SUBSCRIPT_Y 2
SUBSCRIPT_SIZE 18
FIGURE_WIDTH 16
AVG_LOWERCASE_WIDTH 164
AVG_UPPERCASE_WIDTH 160
ENDPROPERTIES
CHARS 268
STARTCHAR .null
ENCODING 0
SWIDTH 0 0
DWIDTH 0 0
BBX 1 1 0 0
BITMAP
00
ENDCHAR
STARTCHAR nonmarkingreturn
ENCODING 13
SWIDTH 540 0
DWIDTH 16 0
BBX 1 1 0 0
BITMAP
00
ENDCHAR
STARTCHAR space
ENCODING 32
SWIDTH 540 0
DWIDTH 16 0
BBX 1 1 0 0
BITMAP
00
ENDCHAR
STARTCHAR exclam
ENCODING 33
SWIDTH 540 0
DWIDTH 16 0
BBX 3 21 7 0
BITMAP
C0
C0
C0
C0
C0
C0
C0
C0
C0
C0
C0
C0
C0
C0
C0
00
00
00
E0
E0
E0
ENDCHAR
STARTCHAR quotedbl
ENCODING 34
SWIDTH 540 0
DWIDTH 16 0
BBX 8 7 4 14
BITMAP
E7
E7
E7
E7
67
66
62
ENDCHAR
STARTCHAR numbersign
ENCODING 35
SWIDTH 540 0
DWIDTH 16 0
BBX 12 21 2 0
BITMAP
39C0
39C0
39C0
39C0
39C0
FFF0
FFF0
39C0
39C0
39C0
39C0
39C0
39C0
FFF0
FFF0
39C0
39C0
39C0
39C0
39C0
39C0
ENDCHAR
STARTCHAR dollar
ENCODING 36
SWIDTH 540 0
DWIDTH 16 0
BBX 10 27 3 -3
BITMAP
0C00
0C00
0C00
0C00
1FC0
7FC0
7000
E000
E000
E000
E000
E000
7000
7F00
3F80
01C0
01C0
01C0
01C0
01C0
01C0
03C0
7F80
7E00
0C00
0C00
0C00
ENDCHAR
STARTCHAR percent
ENCODING 37
SWIDTH 540 0
DWIDTH 16 0
BBX 16 21 0 0
BITMAP
1E00
3F00
7380
6180
6180
6180
7380
3F00
1E00
007F
3FFE
FF00
8078
00FC
00CE
01C6
01C6
01C6
00CE
00FC
0078
ENDCHAR
STARTCHAR ampersand
ENCODING 38
SWIDTH 540 0
DWIDTH 16 0
BBX 13 21 2 0
BITMAP
1F80
3F80
7000
7000
6000
6000
7000
7800
3FF8
7FF8
70E0
60E0
E0E0
E0E0
E0E0
E0E0
E0E0
60E0
70E0
7FE0
1FE0
ENDCHAR
STARTCHAR quotesingle
ENCODING 39
SWIDTH 540 0
DWIDTH 16 0
BBX 3 7 7 14
BITMAP
E0
E0
E0
C0
C0
C0
C0
ENDCHAR
STARTCHAR parenleft
ENCODING 40
SWIDTH 540 0
DWIDTH 16 0
BBX 6 28 5 -4
BITMAP
1C
38
30
70
60
E0
E0
E0
E0
E0
E0
E0
E0
E0
E0
E0
E0
E0
E0
E0
E0
E0
E0
60
70
30
38
1C
ENDCHAR
STARTCHAR parenright
ENCODING 41
SWIDTH 540 0
DWIDTH 16 0
BBX 6 28 5 -4
BITMAP
E0
70
38
18
18
1C
1C
1C
0C
0C
0C
0C
0C
0C
0C
0C
0C
0C
0C
0C
1C
1C
1C
18
18
38
70
E0
ENDCHAR
STARTCHAR asterisk
ENCODING 42
SWIDTH 540 0
DWIDTH 16 0
BBX 12 11 2 11
BITMAP
0600
0600
0600
6630
FFF0
7FE0
0F00
1F80
39C0
79E0
30C0
ENDCHAR
STARTCHAR plus
ENCODING 43
SWIDTH 540 0
DWIDTH 16 0
BBX 12 12 2 3
BITMAP
0600
0600
0600
0600
0600
FFF0
FFF0
0600
0600
0600
0600
0600
ENDCHAR
STARTCHAR comma
ENCODING 44
SWIDTH 540 0
DWIDTH 16 0
BBX 4 7 6 -4
BITMAP
70
70
70
70
70
E0
E0
ENDCHAR
STARTCHAR hyphen
ENCODING 45
SWIDTH 540 0
DWIDTH 16 0
BBX 10 2 3 8
BITMAP
FFC0
FFC0
ENDCHAR
STARTCHAR period
ENCODING 46
SWIDTH 540 0
DWIDTH 16 0
BBX 3 3 7 0
BITMAP
E0
E0
E0
ENDCHAR
STARTCHAR slash
ENCODING 47
SWIDTH 540 0
DWIDTH 16 0
BBX 14 28 1 -3
BITMAP
001C
0018
0038
0038
0030
0070
0060
00E0
00E0
00C0
01C0
0180
0180
0380
0300
0700
0700
0600
0E00
0C00
1C00
1C00
1800
3800
3000
7000
7000
E000
ENDCHAR
STARTCHAR zero
ENCODING 48
SWIDTH 540 0
DWIDTH 16 0
BBX 10 21 3 0
BITMAP
3F00
7F80
F1C0
E0C0
C0C0
C1C0
C1C0
C3C0
C7C0
CEC0
CCC0
DCC0
F8C0
F0C0
F0C0
E0C0
C0C0
E0C0
F1C0
7F80
3F00
ENDCHAR
STARTCHAR one
ENCODING 49
SWIDTH 540 0
DWIDTH 16 0
BBX 10 21 3 0
BITMAP
1E00
FE00
FE00
8E00
0E00
0E00
0E00
0E00
0E00
0E00
0E00
0E00
0E00
0E00
0E00
0E00
0E00
0E00
0E00
FFC0
FFC0
ENDCHAR
STARTCHAR two
ENCODING 50
SWIDTH 540 0
DWIDTH 16 0
BBX 10 21 3 0
BITMAP
7E00
7F00
0780
0180
0180
0180
0180
0180
0180
0380
0380
0700
0E00
0E00
1C00
3800
7800
7000
E000
FFC0
FFC0
ENDCHAR
STARTCHAR three
ENCODING 51
SWIDTH 540 0
DWIDTH 16 0
BBX 9 21 4 0
BITMAP
FC00
FE00
0700
0300
0300
0300
0300
0300
0700
7E00
7E00
0700
0300
0380
0380
0380
0380
0300
0700
FF00
FC00
ENDCHAR
STARTCHAR four
ENCODING 52
SWIDTH 540 0
DWIDTH 16 0
BBX 11 21 3 0
BITMAP
1800
3800
3800
3000
3000
3000
7000
7300
6300
6300
E300
E300
E300
C300
FFE0
FFE0
0300
0300
0300
0300
0300
ENDCHAR
STARTCHAR five
ENCODING 53
SWIDTH 540 0
DWIDTH 16 0
BBX 9 21 4 0
BITMAP
FF00
FF00
C000
C000
C000
C000
C000
C000
FC00
FF00
0700
0300
0380
0380
0380
0380
0380
0300
0700
FF00
FC00
ENDCHAR
STARTCHAR six
ENCODING 54
SWIDTH 540 0
DWIDTH 16 0
BBX 10 21 3 0
BITMAP
3F80
7F80
F000
E000
C000
C000
C000
C000
FF80
FFC0
C1C0
C0C0
C0C0
C0C0
C0C0
C0C0
C0C0
E0C0
F1C0
7F80
3F00
ENDCHAR
STARTCHAR seven
ENCODING 55
SWIDTH 540 0
DWIDTH 16 0
BBX 10 21 3 0
BITMAP
FFC0
FFC0
01C0
01C0
0180
0380
0380
0380
0300
0700
0700
0600
0E00
0E00
0E00
0C00
1C00
1C00
1800
3800
3800
ENDCHAR
STARTCHAR eight
ENCODING 56
SWIDTH 540 0
DWIDTH 16 0
BBX 11 21 3 0
BITMAP
3F00
7F80
E1C0
E0C0
E0C0
E0C0
E0C0
E0C0
E1C0
7F80
7F80
E1C0
C0E0
C0E0
C0E0
C0E0
C0E0
C0E0
E1C0
FFC0
3F00
ENDCHAR
STARTCHAR nine
ENCODING 57
SWIDTH 540 0
DWIDTH 16 0
BBX 10 21 3 0
BITMAP
3F00
7F80
F1C0
E0C0
C0C0
C0C0
C0C0
C0C0
C0C0
C0C0
E0C0
7FC0
3FC0
00C0
00C0
00C0
00C0
00C0
01C0
3F80
3F00
ENDCHAR
STARTCHAR colon
ENCODING 58
SWIDTH 540 0
DWIDTH 16 0
BBX 3 15 7 0
BITMAP
E0
E0
E0
00
00
00
00
00
00
00
00
00
E0
E0
E0
ENDCHAR
STARTCHAR semicolon
ENCODING 59
SWIDTH 540 0
DWIDTH 16 0
BBX 4 19 6 -4
BITMAP
70
70
70
00
00
00
00
00
00
00
00
00
70
70
70
70
70
E0
E0
ENDCHAR
STARTCHAR less
ENCODING 60
SWIDTH 540 0
DWIDTH 16 0
BBX 12 14 2 3
BITMAP
0010
0070
01F0
07C0
3F00
FC00
E000
F000
FC00
3F00
07E0
01F0
0070
0010
ENDCHAR
STARTCHAR equal
ENCODING 61
SWIDTH 540 0
DWIDTH 16 0
BBX 12 8 2 5
BITMAP
FFF0
FFF0
0000
0000
0000
0000
FFF0
FFF0
ENDCHAR
STARTCHAR greater
ENCODING 62
SWIDTH 540 0
DWIDTH 16 0
BBX 12 14 2 3
BITMAP
8000
E000
FC00
3F00
0FC0
01F0
0070
0070
03F0
0FC0
3F00
FC00
E000
8000
ENDCHAR
STARTCHAR question
ENCODING 63
SWIDTH 540 0
DWIDTH 16 0
BBX 8 21 4 0
BITMAP
FC
FE
07
03
03
03
03
07
0F
0E
1C
38
38
38
38
00
00
00
38
38
38
ENDCHAR
STARTCHAR at
ENCODING 64
SWIDTH 540 0
DWIDTH 16 0
BBX 14 21 1 0
BITMAP
3FF0
7FFC
E01C
C00C
C00C
C7CC
CFCC
CCCC
CCCC
CCCC
CCCC
CCCC
CCCC
CCCC
CDCC
CFEC
C77C
C038
E000
FFC0
7FC0
ENDCHAR
STARTCHAR A
ENCODING 65
SWIDTH 540 0
DWIDTH 16 0
BBX 14 21 1 0
BITMAP
0780
0780
0780
07C0
0EC0
0CC0
0CC0
0CE0
1CE0
1C60
1860
1870
3870
3830
3FF0
3FF8
7038
7038
7018
6018
E01C
ENDCHAR
STARTCHAR B
ENCODING 66
SWIDTH 540 0
DWIDTH 16 0
BBX 11 21 3 0
BITMAP
FF00
FF80
C1C0
C0C0
C0C0
C0C0
C0C0
C0C0
C1C0
FF80
FF80
C1C0
C0E0
C0E0
C0E0
C0E0
C0E0
C0E0
C1C0
FFC0
FF80
ENDCHAR
STARTCHAR C
ENCODING 67
SWIDTH 540 0
DWIDTH 16 0
BBX 10 21 3 0
BITMAP
1FC0
7FC0
7000
E000
E000
E000
E000
E000
E000
E000
E000
E000
E000
E000
E000
E000
E000
E000
7000
7FC0
1FC0
ENDCHAR
STARTCHAR D
ENCODING 68
SWIDTH 540 0
DWIDTH 16 0
BBX 12 21 2 0
BITMAP
FF80
FFE0
E0E0
E070
E070
E070
E070
E070
E070
E070
E070
E070
E070
E070
E070
E070
E070
E070
E0E0
FFE0
FFC0
ENDCHAR
STARTCHAR E
ENCODING 69
SWIDTH 540 0
DWIDTH 16 0
BBX 10 21 3 0
BITMAP
FFC0
FFC0
E000
E000
E000
E000
E000
E000
E000
FF80
FF80
E000
E000
E000
E000
E000
E000
E000
E000
FFC0
FFC0
ENDCHAR
STARTCHAR F
ENCODING 70
SWIDTH 540 0
DWIDTH 16 0
BBX 10 21 3 0
BITMAP
FFC0
FFC0
E000
E000
E000
E000
E000
E000
E000
FF80
FF80
E000
E000
E000
E000
E000
E000
E000
E000
E000
E000
ENDCHAR
STARTCHAR G
ENCODING 71
SWIDTH 540 0
DWIDTH 16 0
BBX 10 21 3 0
BITMAP
3F80
7F80
F000
E000
C000
C000
C000
C000
C000
C000
C7C0
C7C0
C0C0
C0C0
C0C0
C0C0
C0C0
E0C0
F0C0
7FC0
3FC0
ENDCHAR
STARTCHAR H
ENCODING 72
SWIDTH 540 0
DWIDTH 16 0
BBX 12 21 2 0
BITMAP
E070
E070
E070
E070
E070
E070
E070
E070
E070
FFF0
FFF0
E070
E070
E070
E070
E070
E070
E070
E070
E070
E070
ENDCHAR
STARTCHAR I
ENCODING 73
SWIDTH 540 0
DWIDTH 16 0
BBX 8 21 4 0
BITMAP
FF
FF
18
18
18
18
18
18
18
18
18
18
18
18
18
18
18
18
18
FF
FF
ENDCHAR
STARTCHAR J
ENCODING 74
SWIDTH 540 0
DWIDTH 16 0
BBX 8 21 4 0
BITMAP
7F
7F
03
03
03
03
03
03
03
03
03
03
03
03
03
03
03
07
0F
FE
FC
ENDCHAR
STARTCHAR K
ENCODING 75
SWIDTH 540 0
DWIDTH 16 0
BBX 12 21 2 0
BITMAP
E0F0
E0E0
E1C0
E180
E380
E700
E700
EE00
FC00
FC00
FC00
FE00
F700
E700
E380
E380
E1C0
E1C0
E0E0
E0E0
E070
ENDCHAR
STARTCHAR L
ENCODING 76
SWIDTH 540 0
DWIDTH 16 0
BBX 10 21 3 0
BITMAP
E000
E000
E000
E000
E000
E000
E000
E000
E000
E000
E000
E000
E000
E000
E000
E000
E000
E000
E000
FFC0
FFC0
ENDCHAR
STARTCHAR M
ENCODING 77
SWIDTH 540 0
DWIDTH 16 0
BBX 13 21 2 0
BITMAP
F0F8
F0F8
F0F8
F8F8
F8F8
D9B8
D9B8
D9B8
DDB8
CF38
CF38
CF38
CF38
C638
C038
C038
C038
C038
C038
C038
C038
ENDCHAR
STARTCHAR N
ENCODING 78
SWIDTH 540 0
DWIDTH 16 0
BBX 12 21 2 0
BITMAP
F870
F870
F870
FC70
FC70
EC70
EC70
EE70
EE70
E670
E670
E770
E770
E370
E370
E3F0
E3F0
E1F0
E1F0
E1F0
E1F0
ENDCHAR
STARTCHAR O
ENCODING 79
SWIDTH 540 0
DWIDTH 16 0
BBX 12 21 2 0
BITMAP
1F80
7FE0
70F0
E070
E070
E070
E070
E070
E070
E070
E070
E070
E070
E070
E070
E070
E070
E070
70F0
7FE0
1F80
ENDCHAR
STARTCHAR P
ENCODING 80
SWIDTH 540 0
DWIDTH 16 0
BBX 11 21 3 0
BITMAP
FF00
FFC0
C1C0
C0C0
C0E0
C0E0
C0E0
C0E0
C0E0
C0C0
C1C0
FFC0
FF00
C000
C000
C000
C000
C000
C000
C000
C000
ENDCHAR
STARTCHAR Q
ENCODING 81
SWIDTH 540 0
DWIDTH 16 0
BBX 14 23 2 -2
BITMAP
1F80
7FE0
70F0
E070
E070
E070
E070
E070
E070
E070
E070
E070
E070
E070
E070
E070
E070
E070
70F0
7FF0
1FF8
001C
0010
ENDCHAR
STARTCHAR R
ENCODING 82
SWIDTH 540 0
DWIDTH 16 0
BBX 12 21 2 0
BITMAP
FF80
FFC0
E1E0
E0E0
E0E0
E0E0
E0E0
E0E0
E0E0
E0E0
FFC0
FF80
E380
E380
E180
E1C0
E0C0
E0E0
E0E0
E070
E070
ENDCHAR
STARTCHAR S
ENCODING 83
SWIDTH 540 0
DWIDTH 16 0
BBX 10 21 3 0
BITMAP
1FC0
7FC0
F000
E000
E000
E000
E000
E000
E000
7F00
3F80
01C0
01C0
00C0
00C0
00C0
00C0
01C0
03C0
7F80
7E00
ENDCHAR
STARTCHAR T
ENCODING 84
SWIDTH 540 0
DWIDTH 16 0
BBX 12 21 2 0
BITMAP
FFF0
FFF0
0600
0600
0600
0600
0600
0600
0600
0600
0600
0600
0600
0600
0600
0600
0600
0600
0600
0600
0600
ENDCHAR
STARTCHAR U
ENCODING 85
SWIDTH 540 0
DWIDTH 16 0
BBX 12 21 2 0
BITMAP
E070
E070
E070
E070
E070
E070
E070
E070
E070
E070
E070
E070
E070
E070
E070
E070
E070
E070
70E0
7FE0
1F80
ENDCHAR
STARTCHAR V
ENCODING 86
SWIDTH 540 0
DWIDTH 16 0
BBX 12 21 2 0
BITMAP
C030
E070
E070
E070
6060
6060
70E0
70E0
70C0
30C0
30C0
39C0
39C0
1980
1980
1980
1F80
1F00
0F00
0F00
0F00
ENDCHAR
STARTCHAR W
ENCODING 87
SWIDTH 540 0
DWIDTH 16 0
BBX 13 21 2 0
BITMAP
C038
C030
C030
C030
C030
C030
C030
C030
C030
C630
C630
CF30
CF30
CF30
CF30
F9B0
F9B0
F9B0
F9B0
F9F0
70F0
ENDCHAR
STARTCHAR X
ENCODING 88
SWIDTH 540 0
DWIDTH 16 0
BBX 13 21 2 0
BITMAP
E070
7070
70E0
30E0
39C0
19C0
1F80
0F80
0F00
0F00
0700
0F00
0F80
1F80
19C0
39C0
38E0
70E0
7060
E070
E078
ENDCHAR
STARTCHAR Y
ENCODING 89
SWIDTH 540 0
DWIDTH 16 0
BBX 14 21 1 0
BITMAP
E01C
7038
7038
3830
3870
1C60
1CE0
0EC0
0FC0
0780
0780
0300
0300
0300
0300
0300
0300
0300
0300
0300
0300
ENDCHAR
STARTCHAR Z
ENCODING 90
SWIDTH 540 0
DWIDTH 16 0
BBX 11 21 3 0
BITMAP
FFE0
FFE0
00E0
01C0
01C0
0380
0380
0700
0700
0E00
0E00
1C00
1C00
3800
3800
7000
7000
E000
C000
FFC0
FFC0
ENDCHAR
STARTCHAR bracketleft
ENCODING 91
SWIDTH 540 0
DWIDTH 16 0
BBX 6 28 5 -4
BITMAP
FC
FC
C0
C0
C0
C0
C0
C0
C0
C0
C0
C0
C0
C0
C0
C0
C0
C0
C0
C0
C0
C0
C0
C0
C0
C0
FC
FC
ENDCHAR
STARTCHAR backslash
ENCODING 92
SWIDTH 540 0
DWIDTH 16 0
BBX 14 28 1 -3
BITMAP
E000
6000
7000
3000
3800
3800
1800
1C00
0C00
0E00
0E00
0600
0700
0300
0300
0380
0180
01C0
00C0
00C0
00E0
0060
0070
0070
0030
0038
0018
001C
ENDCHAR
STARTCHAR bracketright
ENCODING 93
SWIDTH 540 0
DWIDTH 16 0
BBX 6 28 5 -4
BITMAP
FC
FC
0C
0C
0C
0C
0C
0C
0C
0C
0C
0C
0C
0C
0C
0C
0C
0C
0C
0C
0C
0C
0C
0C
0C
0C
FC
FC
ENDCHAR
STARTCHAR asciicircum
ENCODING 94
SWIDTH 540 0
DWIDTH 16 0
BBX 12 10 2 13
BITMAP
0F00
0F80
1F80
1D80
39C0
38C0
30E0
70E0
6060
E070
ENDCHAR
STARTCHAR underscore
ENCODING 95
SWIDTH 540 0
DWIDTH 16 0
BBX 15 2 1 -5
BITMAP
FFFE
FFFE
ENDCHAR
STARTCHAR grave
ENCODING 96
SWIDTH 540 0
DWIDTH 16 0
BBX 6 4 5 17
BITMAP
E0
70
38
1C
ENDCHAR
STARTCHAR a
ENCODING 97
SWIDTH 540 0
DWIDTH 16 0
BBX 12 15 2 0
BITMAP
7F00
7FC0
01C0
00E0
00E0
00E0
3FE0
7FE0
E0E0
E0E0
E0E0
E0E0
E1E0
7FF0
3F70
ENDCHAR
STARTCHAR b
ENCODING 98
SWIDTH 540 0
DWIDTH 16 0
BBX 11 21 3 0
BITMAP
C000
C000
C000
C000
C000
C000
FF00
FFC0
E1C0
C0C0
C0E0
C0E0
C0E0
C0E0
C0E0
C0E0
C0E0
C0C0
C1C0
FFC0
FF00
ENDCHAR
STARTCHAR c
ENCODING 99
SWIDTH 540 0
DWIDTH 16 0
BBX 9 15 4 0
BITMAP
3F80
7F80
E000
C000
C000
C000
C000
C000
C000
C000
C000
C000
E000
FF80
3F80
ENDCHAR
STARTCHAR d
ENCODING 100
SWIDTH 540 0
DWIDTH 16 0
BBX 11 21 3 0
BITMAP
00E0
00E0
00E0
00E0
00E0
00E0
3FE0
FFE0
E0E0
C0E0
C0E0
C0E0
C0E0
C0E0
C0E0
C0E0
C0E0
C0E0
E1E0
FFE0
3FE0
ENDCHAR
STARTCHAR e
ENCODING 101
SWIDTH 540 0
DWIDTH 16 0
BBX 10 15 3 0
BITMAP
3F00
7FC0
F1C0
C0C0
C0C0
C0C0
FFC0
FFC0
C000
C000
C000
E000
E000
7F80
3F80
ENDCHAR
STARTCHAR f
ENCODING 102
SWIDTH 540 0
DWIDTH 16 0
BBX 10 21 3 0
BITMAP
0FC0
1FC0
1800
1800
1800
1800
FFC0
FFC0
1800
1800
1800
1800
1800
1800
1800
1800
1800
1800
1800
FF80
FF80
ENDCHAR
STARTCHAR g
ENCODING 103
SWIDTH 540 0
DWIDTH 16 0
BBX 12 20 2 -5
BITMAP
3FF0
7FF0
F070
E070
E070
E070
E070
E0E0
7FE0
3FC0
3800
3800
3FC0
3FE0
0070
0070
0070
00F0
7FE0
7FC0
ENDCHAR
STARTCHAR h
ENCODING 104
SWIDTH 540 0
DWIDTH 16 0
BBX 11 21 3 0
BITMAP
C000
C000
C000
C000
C000
C000
FF00
FFC0
E1C0
C0C0
C0E0
C0E0
C0E0
C0E0
C0E0
C0E0
C0E0
C0E0
C0E0
C0E0
C0E0
ENDCHAR
STARTCHAR i
ENCODING 105
SWIDTH 540 0
DWIDTH 16 0
BBX 12 21 2 0
BITMAP
0700
0700
0000
0000
0000
0000
FE00
FE00
0600
0600
0600
0600
0600
0600
0600
0600
0600
0600
0600
07F0
07F0
ENDCHAR
STARTCHAR j
ENCODING 106
SWIDTH 540 0
DWIDTH 16 0
BBX 8 26 4 -5
BITMAP
07
07
00
00
00
00
7F
7F
07
07
07
07
07
07
07
07
07
07
07
07
07
07
07
07
FF
FE
ENDCHAR
STARTCHAR k
ENCODING 107
SWIDTH 540 0
DWIDTH 16 0
BBX 11 21 3 0
BITMAP
C000
C000
C000
C000
C000
C000
C1C0
C380
C700
CE00
DC00
FC00
FC00
FC00
EE00
CE00
C700
C780
C380
C1C0
C1E0
ENDCHAR
STARTCHAR l
ENCODING 108
SWIDTH 540 0
DWIDTH 16 0
BBX 12 21 2 0
BITMAP
FE00
FE00
0600
0600
0600
0600
0600
0600
0600
0600
0600
0600
0600
0600
0600
0600
0600
0600
0600
07F0
03F0
ENDCHAR
STARTCHAR m
ENCODING 109
SWIDTH 540 0
DWIDTH 16 0
BBX 14 15 1 0
BITMAP
FEF8
FFF8
E79C
E31C
E30C
E30C
E30C
E30C
E30C
E30C
E30C
E30C
E30C
E30C
E30C
ENDCHAR
STARTCHAR n
ENCODING 110
SWIDTH 540 0
DWIDTH 16 0
BBX 11 15 3 0
BITMAP
FF00
FFC0
E1C0
C0C0
C0E0
C0E0
C0E0
C0E0
C0E0
C0E0
C0E0
C0E0
C0E0
C0E0
C0E0
ENDCHAR
STARTCHAR o
ENCODING 111
SWIDTH 540 0
DWIDTH 16 0
BBX 12 15 2 0
BITMAP
1F80
7FE0
70E0
6070
E070
E070
E070
E070
E070
E070
E070
6070
70E0
7FE0
1F80
ENDCHAR
STARTCHAR p
ENCODING 112
SWIDTH 540 0
DWIDTH 16 0
BBX 11 20 3 -5
BITMAP
FF00
FFC0
E1C0
C0C0
C0E0
C0E0
C0E0
C0E0
C0E0
C0E0
C0E0
C0C0
C1C0
FFC0
FF00
C000
C000
C000
C000
C000
ENDCHAR
STARTCHAR q
ENCODING 113
SWIDTH 540 0
DWIDTH 16 0
BBX 11 20 3 -5
BITMAP
3FE0
FFE0
E0E0
C0E0
C0E0
C0E0
C0E0
C0E0
C0E0
C0E0
C0E0
C0E0
E1E0
FFE0
3FE0
00E0
00E0
00E0
00E0
00E0
ENDCHAR
STARTCHAR r
ENCODING 114
SWIDTH 540 0
DWIDTH 16 0
BBX 10 15 3 0
BITMAP
FFC0
FFC0
3C00
3800
3800
3800
3800
3800
3800
3800
3800
3800
3800
FF00
FF00
ENDCHAR
STARTCHAR s
ENCODING 115
SWIDTH 540 0
DWIDTH 16 0
BBX 9 15 4 0
BITMAP
7F00
FF00
E000
C000
C000
C000
FE00
7F00
0700
0380
0380
0380
0780
FF00
FE00
ENDCHAR
STARTCHAR t
ENCODING 116
SWIDTH 540 0
DWIDTH 16 0
BBX 10 19 3 0
BITMAP
1C00
1C00
1C00
1C00
FFC0
FFC0
1C00
1C00
1C00
1C00
1C00
1C00
1C00
1C00
1C00
1C00
1C00
0FC0
0FC0
ENDCHAR
STARTCHAR u
ENCODING 117
SWIDTH 540 0
DWIDTH 16 0
BBX 10 15 3 0
BITMAP
C0C0
C0C0
C0C0
C0C0
C0C0
C0C0
C0C0
C0C0
C0C0
C0C0
C0C0
C0C0
E1C0
7FC0
3FC0
ENDCHAR
STARTCHAR v
ENCODING 118
SWIDTH 540 0
DWIDTH 16 0
BBX 12 15 2 0
BITMAP
E070
E070
6070
7060
70E0
30E0
30C0
38C0
39C0
19C0
1D80
1D80
0F80
0F00
0F00
ENDCHAR
STARTCHAR w
ENCODING 119
SWIDTH 540 0
DWIDTH 16 0
BBX 14 15 1 0
BITMAP
E00C
E00C
E01C
631C
6398
6398
7798
7798
3798
36F0
36F0
3CF0
3CF0
3CF0
1CF0
ENDCHAR
STARTCHAR x
ENCODING 120
SWIDTH 540 0
DWIDTH 16 0
BBX 12 15 2 0
BITMAP
F070
70E0
38C0
39C0
1F80
0F00
0F00
0F00
0F00
1F80
1980
39C0
70E0
70E0
E070
ENDCHAR
STARTCHAR y
ENCODING 121
SWIDTH 540 0
DWIDTH 16 0
BBX 12 20 2 -5
BITMAP
E030
E070
6070
7060
70E0
30E0
38C0
38C0
19C0
19C0
1D80
0D80
0F80
0F00
0700
0700
0700
0E00
3E00
3C00
ENDCHAR
STARTCHAR z
ENCODING 122
SWIDTH 540 0
DWIDTH 16 0
BBX 10 15 3 0
BITMAP
7FC0
7FC0
01C0
03C0
0380
0700
0E00
0E00
1C00
3800
3800
7000
E000
FFC0
FFC0
ENDCHAR
STARTCHAR braceleft
ENCODING 123
SWIDTH 540 0
DWIDTH 16 0
BBX 8 28 4 -4
BITMAP
1F
1F
18
18
18
18
18
18
18
18
18
38
F0
C0
F0
38
18
18
18
18
18
18
18
18
18
18
1F
0F
ENDCHAR
STARTCHAR bar
ENCODING 124
SWIDTH 540 0
DWIDTH 16 0
BBX 2 28 7 -3
BITMAP
C0
C0
C0
C0
C0
C0
C0
C0
C0
C0
C0
C0
C0
C0
C0
C0
C0
C0
C0
C0
C0
C0
C0
C0
C0
C0
C0
C0
ENDCHAR
STARTCHAR braceright
ENCODING 125
SWIDTH 540 0
DWIDTH 16 0
BBX 8 28 4 -4
BITMAP
F8
F8
1C
1C
1C
1C
1C
1C
1C
1C
1C
1C
0F
03
0F
0C
1C
1C
1C
1C
1C
1C
1C
1C
1C
1C
F8
F0
ENDCHAR
STARTCHAR asciitilde
ENCODING 126
SWIDTH 540 0
DWIDTH 16 0
BBX 10 3 3 8
BITMAP
FCC0
FFC0
8780
ENDCHAR
STARTCHAR uni00A0
ENCODING 160
SWIDTH 540 0
DWIDTH 16 0
BBX 1 1 0 0
BITMAP
00
ENDCHAR
STARTCHAR exclamdown
ENCODING 161
SWIDTH 540 0
DWIDTH 16 0
BBX 3 21 7 -6
BITMAP
E0
E0
E0
00
00
00
C0
C0
C0
C0
C0
C0
C0
C0
C0
C0
C0
C0
C0
C0
C0
ENDCHAR
STARTCHAR cent
ENCODING 162
SWIDTH 540 0
DWIDTH 16 0
BBX 9 21 4 -3
BITMAP
0C00
0C00
0C00
3F80
FF80
E000
C000
C000
C000
C000
C000
C000
C000
C000
C000
E000
FF80
3F80
0C00
0C00
0C00
ENDCHAR
STARTCHAR sterling
ENCODING 163
SWIDTH 540 0
DWIDTH 16 0
BBX 10 21 3 0
BITMAP
07C0
1FC0
3C00
3800
3000
3000
3000
3000
3000
FF00
FF00
3000
3000
3000
3000
3000
3000
3000
3000
FFC0
FFC0
ENDCHAR
STARTCHAR currency
ENCODING 164
SWIDTH 540 0
DWIDTH 16 0
BBX 16 15 0 1
BITMAP
6006
FFFF
3FFE
1C3C
381C
381C
381C
381C
381C
381C
381C
3FFC
FFFF
6006
2002
ENDCHAR
STARTCHAR yen
ENCODING 165
SWIDTH 540 0
DWIDTH 16 0
BBX 13 21 2 0
BITMAP
E038
E070
7060
70E0
38C0
39C0
19C0
1F80
0F80
0F00
0700
7FE0
7FE0
0600
0600
7FE0
7FE0
0600
0600
0600
0600
ENDCHAR
STARTCHAR brokenbar
ENCODING 166
SWIDTH 540 0
DWIDTH 16 0
BBX 2 28 7 -3
BITMAP
C0
C0
C0
C0
C0
C0
C0
C0
C0
C0
C0
00
00
00
00
00
00
C0
C0
C0
C0
C0
C0
C0
C0
C0
C0
C0
ENDCHAR
STARTCHAR section
ENCODING 167
SWIDTH 540 0
DWIDTH 16 0
BBX 10 21 3 0
BITMAP
1F80
7F80
7000
6000
6000
7000
7F00
7F80
63C0
E1C0
E1C0
E1C0
7180
7F80
3F80
0180
0180
0180
0380
7F80
7E00
ENDCHAR
STARTCHAR dieresis
ENCODING 168
SWIDTH 540 0
DWIDTH 16 0
BBX 8 2 4 18
BITMAP
C3
C3
ENDCHAR
STARTCHAR copyright
ENCODING 169
SWIDTH 540 0
DWIDTH 16 0
BBX 14 21 1 0
BITMAP
3FF0
7FF8
E01C
C00C
C3CC
C7CC
CC0C
CC0C
CC0C
CC0C
CC0C
CC0C
CC0C
CC0C
CC0C
C7CC
C3CC
C00C
E01C
7FF8
3FF0
ENDCHAR
STARTCHAR ordfeminine
ENCODING 170
SWIDTH 540 0
DWIDTH 16 0
BBX 8 21 4 0
BITMAP
7C
7E
06
06
7E
FE
C6
C6
C6
FF
7F
00
00
00
00
00
00
00
00
FF
FF
ENDCHAR
STARTCHAR guillemotleft
ENCODING 171
SWIDTH 540 0
DWIDTH 16 0
BBX 10 12 3 3
BITMAP
18C0
3980
3180
7380
7300
6700
E700
7300
7380
3180
3980
18C0
ENDCHAR
STARTCHAR logicalnot
ENCODING 172
SWIDTH 540 0
DWIDTH 16 0
BBX 12 7 2 3
BITMAP
FFF0
FFF0
0030
0030
0030
0030
0030
ENDCHAR
STARTCHAR uni00AD
ENCODING 173
SWIDTH 540 0
DWIDTH 16 0
BBX 10 2 3 8
BITMAP
FFC0
FFC0
ENDCHAR
STARTCHAR registered
ENCODING 174
SWIDTH 540 0
DWIDTH 16 0
BBX 14 21 1 0
BITMAP
3FF0
7FF8
E01C
C00C
C00C
CF8C
CCCC
CC4C
CC4C
CCCC
CFCC
CD8C
CCCC
CCCC
CC6C
CC6C
C00C
C00C
E01C
7FF8
3FF0
ENDCHAR
STARTCHAR macron
ENCODING 175
SWIDTH 540 0
DWIDTH 16 0
BBX 8 2 4 18
BITMAP
FF
FF
ENDCHAR
STARTCHAR degree
ENCODING 176
SWIDTH 540 0
DWIDTH 16 0
BBX 8 10 4 11
BITMAP
3E
FF
E7
C3
C3
C3
C3
E7
7F
3E
ENDCHAR
STARTCHAR plusminus
ENCODING 177
SWIDTH 540 0
DWIDTH 16 0
BBX 12 15 2 0
BITMAP
0600
0600
0600
0600
0600
FFF0
FFF0
0600
0600
0600
0600
0000
0000
FFF0
FFF0
ENDCHAR
STARTCHAR twosuperior
ENCODING 178
SWIDTH 540 0
DWIDTH 16 0
BBX 8 15 4 6
BITMAP
7C
7E
0E
07
07
06
06
0E
0C
18
38
70
60
FF
FF
ENDCHAR
STARTCHAR threesuperior
ENCODING 179
SWIDTH 540 0
DWIDTH 16 0
BBX 6 15 5 6
BITMAP
F8
FC
1C
0C
0C
0C
FC
FC
1C
0C
0C
0C
1C
FC
F8
ENDCHAR
STARTCHAR acute
ENCODING 180
SWIDTH 540 0
DWIDTH 16 0
BBX 6 4 5 17
BITMAP
1C
38
70
E0
ENDCHAR
STARTCHAR mu
ENCODING 181
SWIDTH 540 0
DWIDTH 16 0
BBX 10 20 3 -5
BITMAP
E0C0
E0C0
E0C0
E0C0
E0C0
E0C0
E0C0
E0C0
E0C0
E0C0
E0C0
E1C0
F1C0
FFC0
FEC0
E000
E000
E000
E000
E000
ENDCHAR
STARTCHAR paragraph
ENCODING 182
SWIDTH 540 0
DWIDTH 16 0
BBX 12 21 2 0
BITMAP
3F70
7F70
E070
C070
C070
C070
C070
E070
7F70
3F70
0770
0770
0770
0770
0770
0770
0770
0770
0770
0770
0770
ENDCHAR
STARTCHAR periodcentered
ENCODING 183
SWIDTH 540 0
DWIDTH 16 0
BBX 3 3 7 8
BITMAP
E0
E0
E0
ENDCHAR
STARTCHAR cedilla
ENCODING 184
SWIDTH 540 0
DWIDTH 16 0
BBX 6 8 5 -6
BITMAP
60
60
70
78
1C
1C
FC
F8
ENDCHAR
STARTCHAR onesuperior
ENCODING 185
SWIDTH 540 0
DWIDTH 16 0
BBX 8 15 4 6
BITMAP
3C
FC
DC
1C
1C
1C
1C
1C
1C
1C
1C
1C
1C
7F
7F
ENDCHAR
STARTCHAR ordmasculine
ENCODING 186
SWIDTH 540 0
DWIDTH 16 0
BBX 8 21 4 0
BITMAP
7E
FF
E7
C3
C3
C3
C3
C3
C3
FF
7E
00
00
00
00
00
00
00
00
FF
FF
ENDCHAR
STARTCHAR guillemotright
ENCODING 187
SWIDTH 540 0
DWIDTH 16 0
BBX 10 12 3 3
BITMAP
E600
6300
6300
7380
3180
39C0
39C0
3180
7380
6300
6300
E600
ENDCHAR
STARTCHAR onequarter
ENCODING 188
SWIDTH 540 0
DWIDTH 16 0
BBX 16 28 0 -3
BITMAP
0018
0018
0018
0038
7830
F830
F830
3870
3860
3860
38FC
38D8
38D8
38D8
39D8
39B6
39B6
7DB6
7FB6
0336
033F
073F
0606
0606
0606
0E00
0C00
0C00
ENDCHAR
STARTCHAR onehalf
ENCODING 189
SWIDTH 540 0
DWIDTH 16 0
BBX 16 28 0 -3
BITMAP
001C
0018
0038
0038
7838
F830
F870
3870
3860
3860
38FE
38FF
38C7
38C3
39C3
3983
3983
7D87
7F86
030E
030C
071C
0718
061F
061F
0E00
0C00
0C00
ENDCHAR
STARTCHAR threequarters
ENCODING 190
SWIDTH 540 0
DWIDTH 16 0
BBX 15 28 1 -3
BITMAP
0030
0030
0070
0060
E060
F060
38E0
18C0
18C0
38C0
F1F8
F1B0
39B0
1BB0
1B30
1B6C
3B6C
FF6C
F66C
066C
067E
0E7E
0C0C
0C0C
1C0C
1800
1800
3800
ENDCHAR
STARTCHAR questiondown
ENCODING 191
SWIDTH 540 0
DWIDTH 16 0
BBX 8 21 4 -6
BITMAP
1C
1C
1C
00
00
00
0C
0C
0C
1C
3C
78
70
E0
E0
C0
C0
E0
F0
7F
3F
ENDCHAR
STARTCHAR Agrave
ENCODING 192
SWIDTH 540 0
DWIDTH 16 0
BBX 14 25 1 0
BITMAP
1E00
0700
01C0
0000
0780
0780
0780
07C0
0EC0
0CC0
0CC0
0CE0
1CE0
1C60
1860
1870
3870
3830
3FF0
3FF8
7038
7038
7018
6018
E01C
ENDCHAR
STARTCHAR Aacute
ENCODING 193
SWIDTH 540 0
DWIDTH 16 0
BBX 14 25 1 0
BITMAP
01E0
0380
0F00
0000
0780
0780
0780
07C0
0EC0
0CC0
0CC0
0CE0
1CE0
1860
1860
1870
3870
3830
3FF0
3FF8
7038
7038
7018
6018
E01C
ENDCHAR
STARTCHAR Acircumflex
ENCODING 194
SWIDTH 540 0
DWIDTH 16 0
BBX 14 26 1 0
BITMAP
0300
0780
0FC0
3CF0
0000
0780
0780
0780
07C0
0EC0
0CC0
0CC0
0CE0
1CE0
1C60
1860
1870
3870
3830
3FF0
3FF8
7038
7038
7018
6018
E01C
ENDCHAR
STARTCHAR Atilde
ENCODING 195
SWIDTH 540 0
DWIDTH 16 0
BBX 14 25 1 0
BITMAP
0F20
1FE0
11E0
0000
0780
0780
0780
07C0
0EC0
0CC0
0CC0
0CE0
1CE0
1C60
1860
1870
3870
3830
3FF0
3FF8
7038
7038
7018
6018
E01C
ENDCHAR
STARTCHAR Adieresis
ENCODING 196
SWIDTH 540 0
DWIDTH 16 0
BBX 14 24 1 0
BITMAP
1C60
1C70
0000
0780
0780
0780
07C0
0EC0
0CC0
0CC0
0CE0
1CE0
1C60
1860
1870
3870
3830
3FF0
3FF8
7038
7038
7018
6018
E01C
ENDCHAR
STARTCHAR Aring
ENCODING 197
SWIDTH 540 0
DWIDTH 16 0
BBX 14 26 1 0
BITMAP
0780
04C0
0CC0
0CC0
0CC0
0780
0780
0780
07C0
0EC0
0CC0
0CC0
0CE0
1CE0
1C60
1860
1870
3870
3830
3FF0
3FF8
7038
7038
7018
6018
E01C
ENDCHAR
STARTCHAR AE
ENCODING 198
SWIDTH 540 0
DWIDTH 16 0
BBX 16 21 0 0
BITMAP
03FE
07FE
07C0
06C0
06C0
0EC0
0CC0
0CC0
0CC0
1CFE
1CFE
18E0
18E0
38E0
3FE0
3FE0
3060
7060
7060
607F
E07F
ENDCHAR
STARTCHAR Ccedilla
ENCODING 199
SWIDTH 540 0
DWIDTH 16 0
BBX 10 27 3 -6
BITMAP
1FC0
7FC0
7000
E000
E000
E000
E000
E000
E000
E000
E000
E000
E000
E000
E000
E000
E000
E000
7000
7FC0
1FC0
0600
0780
0180
0180
0F80
0F00
ENDCHAR
STARTCHAR Egrave
ENCODING 200
SWIDTH 540 0
DWIDTH 16 0
BBX 10 25 3 0
BITMAP
7800
1C00
0F00
0000
FFC0
FFC0
E000
E000
E000
E000
E000
E000
E000
FF80
FF80
E000
E000
E000
E000
E000
E000
E000
E000
FFC0
FFC0
ENDCHAR
STARTCHAR Eacute
ENCODING 201
SWIDTH 540 0
DWIDTH 16 0
BBX 10 25 3 0
BITMAP
0780
0E00
3C00
0000
FFC0
FFC0
E000
E000
E000
E000
E000
E000
E000
FF80
FF80
E000
E000
E000
E000
E000
E000
E000
E000
FFC0
FFC0
ENDCHAR
STARTCHAR Ecircumflex
ENCODING 202
SWIDTH 540 0
DWIDTH 16 0
BBX 10 26 3 0
BITMAP
0C00
1E00
3F00
F3C0
0000
FFC0
FFC0
E000
E000
E000
E000
E000
E000
E000
FF80
FF80
E000
E000
E000
E000
E000
E000
E000
E000
FFC0
FFC0
ENDCHAR
STARTCHAR Edieresis
ENCODING 203
SWIDTH 540 0
DWIDTH 16 0
BBX 10 24 3 0
BITMAP
6180
6180
0000
FFC0
FFC0
E000
E000
E000
E000
E000
E000
E000
FF80
FF80
E000
E000
E000
E000
E000
E000
E000
E000
FFC0
FFC0
ENDCHAR
STARTCHAR Igrave
ENCODING 204
SWIDTH 540 0
DWIDTH 16 0
BBX 8 25 4 0
BITMAP
F0
38
1E
00
FF
FF
18
18
18
18
18
18
18
18
18
18
18
18
18
18
18
18
18
FF
FF
ENDCHAR
STARTCHAR Iacute
ENCODING 205
SWIDTH 540 0
DWIDTH 16 0
BBX 8 25 4 0
BITMAP
0F
1C
70
00
FF
FF
18
18
18
18
18
18
18
18
18
18
18
18
18
18
18
18
18
FF
FF
ENDCHAR
STARTCHAR Icircumflex
ENCODING 206
SWIDTH 540 0
DWIDTH 16 0
BBX 10 26 3 0
BITMAP
0C00
1E00
3F00
F3C0
0000
7F80
7F80
0C00
0C00
0C00
0C00
0C00
0C00
0C00
0C00
0C00
0C00
0C00
0C00
0C00
0C00
0C00
0C00
0C00
7F80
7F80
ENDCHAR
STARTCHAR Idieresis
ENCODING 207
SWIDTH 540 0
DWIDTH 16 0
BBX 8 24 4 0
BITMAP
C3
C3
00
FF
FF
18
18
18
18
18
18
18
18
18
18
18
18
18
18
18
18
18
FF
FF
ENDCHAR
STARTCHAR Eth
ENCODING 208
SWIDTH 540 0
DWIDTH 16 0
BBX 13 21 1 0
BITMAP
3FE0
3FF0
3078
3038
3038
3038
3038
3038
3038
FF38
FF38
3038
3038
3038
3038
3038
3038
3038
3078
3FF0
3FE0
ENDCHAR
STARTCHAR Ntilde
ENCODING 209
SWIDTH 540 0
DWIDTH 16 0
BBX 12 25 2 0
BITMAP
1E40
3FC0
23C0
0000
F870
F870
F870
FC70
FC70
EC70
EC70
EE70
EE70
E670
E670
E770
E770
E370
E370
E3F0
E3F0
E1F0
E1F0
E1F0
E1F0
ENDCHAR
STARTCHAR Ograve
ENCODING 210
SWIDTH 540 0
DWIDTH 16 0
BBX 12 25 2 0
BITMAP
3C00
0E00
0780
0000
1F80
7FE0
70F0
E070
E070
E070
E070
E070
E070
E070
E070
E070
E070
E070
E070
E070
E070
E070
70F0
7FE0
1F80
ENDCHAR
STARTCHAR Oacute
ENCODING 211
SWIDTH 540 0
DWIDTH 16 0
BBX 12 25 2 0
BITMAP
03C0
0700
0E00
0000
1F80
7FE0
70F0
E070
E070
E070
E070
E070
E070
E070
E070
E070
E070
E070
E070
E070
E070
E070
70F0
7FE0
1F80
ENDCHAR
STARTCHAR Ocircumflex
ENCODING 212
SWIDTH 540 0
DWIDTH 16 0
BBX 12 26 2 0
BITMAP
0600
0F00
1F80
79E0
0000
1F80
7FE0
70F0
E070
E070
E070
E070
E070
E070
E070
E070
E070
E070
E070
E070
E070
E070
E070
70F0
7FE0
1F80
ENDCHAR
STARTCHAR Otilde
ENCODING 213
SWIDTH 540 0
DWIDTH 16 0
BBX 12 25 2 0
BITMAP
3E40
3FC0
23C0
0000
1F80
7FE0
70F0
E070
E070
E070
E070
E070
E070
E070
E070
E070
E070
E070
E070
E070
E070
E070
70F0
7FE0
1F80
ENDCHAR
STARTCHAR Odieresis
ENCODING 214
SWIDTH 540 0
DWIDTH 16 0
BBX 12 24 2 0
BITMAP
30C0
30C0
0000
1F80
7FE0
70F0
E070
E070
E070
E070
E070
E070
E070
E070
E070
E070
E070
E070
E070
E070
E070
70F0
7FE0
1F80
ENDCHAR
STARTCHAR multiply
ENCODING 215
SWIDTH 540 0
DWIDTH 16 0
BBX 10 10 3 4
BITMAP
60C0
F1C0
7B80
3F00
1E00
1F00
3F80
73C0
E1C0
4080
ENDCHAR
STARTCHAR Oslash
ENCODING 216
SWIDTH 540 0
DWIDTH 16 0
BBX 12 26 2 -2
BITMAP
0060
00E0
00C0
1FC0
7FE0
71F0
E1F0
E1F0
E3F0
E370
E370
E770
E770
E670
E670
EE70
EC70
EC70
EC70
FC70
F870
78F0
7FE0
3F80
3000
7000
ENDCHAR
STARTCHAR Ugrave
ENCODING 217
SWIDTH 540 0
DWIDTH 16 0
BBX 12 25 2 0
BITMAP
7800
1C00
0700
0000
E070
E070
E070
E070
E070
E070
E070
E070
E070
E070
E070
E070
E070
E070
E070
E070
E070
E070
70E0
7FE0
1F80
ENDCHAR
STARTCHAR Uacute
ENCODING 218
SWIDTH 540 0
DWIDTH 16 0
BBX 12 25 2 0
BITMAP
01E0
0380
0E00
0000
E070
E070
E070
E070
E070
E070
E070
E070
E070
E070
E070
E070
E070
E070
E070
E070
E070
E070
70E0
7FE0
1F80
ENDCHAR
STARTCHAR Ucircumflex
ENCODING 219
SWIDTH 540 0
DWIDTH 16 0
BBX 12 26 2 0
BITMAP
0700
0F80
1DC0
38E0
0000
E070
E070
E070
E070
E070
E070
E070
E070
E070
E070
E070
E070
E070
E070
E070
E070
E070
E070
70E0
7FE0
1F80
ENDCHAR
STARTCHAR Udieresis
ENCODING 220
SWIDTH 540 0
DWIDTH 16 0
BBX 12 24 2 0
BITMAP
30C0
30C0
0000
E070
E070
E070
E070
E070
E070
E070
E070
E070
E070
E070
E070
E070
E070
E070
E070
E070
E070
70E0
7FE0
1F80
ENDCHAR
STARTCHAR Yacute
ENCODING 221
SWIDTH 540 0
DWIDTH 16 0
BBX 14 25 1 0
BITMAP
01E0
0380
0700
0000
E01C
7038
7038
3830
3870
1C60
1CE0
0EC0
0FC0
0780
0780
0300
0300
0300
0300
0300
0300
0300
0300
0300
0300
ENDCHAR
STARTCHAR Thorn
ENCODING 222
SWIDTH 540 0
DWIDTH 16 0
BBX 11 21 3 0
BITMAP
C000
C000
C000
C000
FF00
FFC0
C1C0
C0E0
C0E0
C0E0
C0E0
C0E0
C0E0
C0E0
C1C0
FFC0
FF00
C000
C000
C000
C000
ENDCHAR
STARTCHAR germandbls
ENCODING 223
SWIDTH 540 0
DWIDTH 16 0
BBX 12 21 2 0
BITMAP
1F80
7FC0
71E0
E0E0
E060
E060
E3E0
E7E0
E700
E600
E600
E700
E7E0
E3F0
E070
E070
E070
E070
E070
EFE0
EFC0
ENDCHAR
STARTCHAR agrave
ENCODING 224
SWIDTH 540 0
DWIDTH 16 0
BBX 12 21 2 0
BITMAP
3C00
1C00
0E00
0700
0000
0000
7F00
7FC0
01C0
00E0
00E0
00E0
3FE0
7FE0
E0E0
E0E0
E0E0
E0E0
E1E0
7FF0
3F70
ENDCHAR
STARTCHAR aacute
ENCODING 225
SWIDTH 540 0
DWIDTH 16 0
BBX 12 21 2 0
BITMAP
01C0
0380
0700
0E00
0000
0000
7F00
7FC0
01C0
00E0
00E0
00E0
3FE0
7FE0
E0E0
E0E0
E0E0
E0E0
E1E0
7FF0
3F70
ENDCHAR
STARTCHAR acircumflex
ENCODING 226
SWIDTH 540 0
DWIDTH 16 0
BBX 12 21 2 0
BITMAP
0E00
1F00
3B80
71C0
0000
0000
7F00
7FC0
01C0
00E0
00E0
00E0
3FE0
7FE0
E0E0
E0E0
E0E0
E0E0
E1E0
7FF0
3F70
ENDCHAR
STARTCHAR atilde
ENCODING 227
SWIDTH 540 0
DWIDTH 16 0
BBX 12 21 2 0
BITMAP
3C40
7FC0
6780
0000
0000
0000
7F00
7FC0
01C0
00E0
00E0
00E0
3FE0
7FE0
E0E0
E0E0
E0E0
E0E0
E1E0
7FF0
3F70
ENDCHAR
STARTCHAR adieresis
ENCODING 228
SWIDTH 540 0
DWIDTH 16 0
BBX 12 20 2 0
BITMAP
71C0
71C0
0000
0000
0000
7F00
7FC0
01C0
00E0
00E0
00E0
3FE0
7FE0
E0E0
E0E0
E0E0
E0E0
E1E0
7FF0
3F70
ENDCHAR
STARTCHAR aring
ENCODING 229
SWIDTH 540 0
DWIDTH 16 0
BBX 12 22 2 0
BITMAP
0E00
1B00
1100
1900
1F00
0000
0000
7F00
7FC0
01C0
00E0
00E0
00E0
3FE0
7FE0
E0E0
E0E0
E0E0
E0E0
E1E0
7FF0
3F70
ENDCHAR
STARTCHAR ae
ENCODING 230
SWIDTH 540 0
DWIDTH 16 0
BBX 14 15 1 0
BITMAP
7CF8
7FFC
07DC
038C
030C
030C
3FFC
FFFC
E300
C300
C300
C380
E7C0
FFFC
7CFC
ENDCHAR
STARTCHAR ccedilla
ENCODING 231
SWIDTH 540 0
DWIDTH 16 0
BBX 9 21 4 -6
BITMAP
3F80
7F80
E000
C000
C000
C000
C000
C000
C000
C000
C000
C000
E000
FF80
3F80
1800
1F00
0300
0300
1F00
1E00
ENDCHAR
STARTCHAR egrave
ENCODING 232
SWIDTH 540 0
DWIDTH 16 0
BBX 10 21 3 0
BITMAP
3800
1C00
0E00
0700
0000
0000
3F00
7FC0
F1C0
C0C0
C0C0
C0C0
FFC0
FFC0
C000
C000
C000
E000
E000
7F80
3F80
ENDCHAR
STARTCHAR eacute
ENCODING 233
SWIDTH 540 0
DWIDTH 16 0
BBX 10 21 3 0
BITMAP
03C0
0700
0600
0C00
0000
0000
3F00
7FC0
F1C0
C0C0
C0C0
C0C0
FFC0
FFC0
C000
C000
C000
E000
E000
7F80
3F80
ENDCHAR
STARTCHAR ecircumflex
ENCODING 234
SWIDTH 540 0
DWIDTH 16 0
BBX 10 21 3 0
BITMAP
1E00
3F00
3380
F1C0
0000
0000
3F00
7FC0
F1C0
C0C0
C0C0
C0C0
FFC0
FFC0
C000
C000
C000
E000
E000
7F80
3F80
ENDCHAR
STARTCHAR edieresis
ENCODING 235
SWIDTH 540 0
DWIDTH 16 0
BBX 10 20 3 0
BITMAP
71C0
71C0
0000
0000
0000
3F00
7FC0
F1C0
C0C0
C0C0
C0C0
FFC0
FFC0
C000
C000
C000
E000
E000
7F80
3F80
ENDCHAR
STARTCHAR igrave
ENCODING 236
SWIDTH 540 0
DWIDTH 16 0
BBX 12 21 2 0
BITMAP
3C00
0E00
0700
0380
0000
0000
FE00
FE00
0600
0600
0600
0600
0600
0600
0600
0600
0600
0600
0600
07F0
07F0
ENDCHAR
STARTCHAR iacute
ENCODING 237
SWIDTH 540 0
DWIDTH 16 0
BBX 12 21 2 0
BITMAP
01C0
0380
0700
0E00
0000
0000
FE00
FE00
0600
0600
0600
0600
0600
0600
0600
0600
0600
0600
0600
07F0
07F0
ENDCHAR
STARTCHAR icircumflex
ENCODING 238
SWIDTH 540 0
DWIDTH 16 0
BBX 12 21 2 0
BITMAP
0F00
0F80
19C0
38E0
0000
0000
FE00
FE00
0600
0600
0600
0600
0600
0600
0600
0600
0600
0600
0600
07F0
07F0
ENDCHAR
STARTCHAR idieresis
ENCODING 239
SWIDTH 540 0
DWIDTH 16 0
BBX 12 20 2 0
BITMAP
30C0
30C0
0000
0000
0000
FE00
FE00
0600
0600
0600
0600
0600
0600
0600
0600
0600
0600
0600
07F0
07F0
ENDCHAR
STARTCHAR eth
ENCODING 240
SWIDTH 540 0
DWIDTH 16 0
BBX 10 23 3 0
BITMAP
0300
0700
7F00
7F80
0FC0
18C0
00C0
00C0
00C0
3FC0
7FC0
E0C0
C0C0
C0C0
C0C0
C0C0
C0C0
C0C0
C0C0
E0C0
F1C0
7F80
3F00
ENDCHAR
STARTCHAR ntilde
ENCODING 241
SWIDTH 540 0
DWIDTH 16 0
BBX 11 21 3 0
BITMAP
3C40
7FC0
6780
0000
0000
0000
FF00
FFC0
E1C0
C0C0
C0E0
C0E0
C0E0
C0E0
C0E0
C0E0
C0E0
C0E0
C0E0
C0E0
C0E0
ENDCHAR
STARTCHAR ograve
ENCODING 242
SWIDTH 540 0
DWIDTH 16 0
BBX 12 21 2 0
BITMAP
1C00
0E00
0700
0380
0000
0000
1F80
7FE0
70E0
E060
E070
E070
E070
E070
E070
E070
E070
E060
70E0
7FE0
1F80
ENDCHAR
STARTCHAR oacute
ENCODING 243
SWIDTH 540 0
DWIDTH 16 0
BBX 12 21 2 0
BITMAP
0380
0700
0E00
1C00
0000
0000
1F80
7FE0
70E0
6070
E070
E070
E070
E070
E070
E070
E070
6070
70E0
7FE0
1F80
ENDCHAR
STARTCHAR ocircumflex
ENCODING 244
SWIDTH 540 0
DWIDTH 16 0
BBX 12 21 2 0
BITMAP
0F00
1F80
19C0
78E0
0000
0000
1F80
7FE0
70E0
6070
E070
E070
E070
E070
E070
E070
E070
6070
70E0
7FE0
1F80
ENDCHAR
STARTCHAR otilde
ENCODING 245
SWIDTH 540 0
DWIDTH 16 0
BBX 12 21 2 0
BITMAP
1C40
3FC0
27C0
0000
0000
0000
1F80
7FE0
70E0
6070
E070
E070
E070
E070
E070
E070
E070
6070
70E0
7FE0
1F80
ENDCHAR
STARTCHAR odieresis
ENCODING 246
SWIDTH 540 0
DWIDTH 16 0
BBX 12 20 2 0
BITMAP
30C0
30C0
0000
0000
0000
1F80
7FE0
70E0
6070
E070
E070
E070
E070
E070
E070
E070
6070
70E0
7FE0
1F80
ENDCHAR
STARTCHAR divide
ENCODING 247
SWIDTH 540 0
DWIDTH 16 0
BBX 12 15 2 2
BITMAP
0700
0700
0700
0000
0000
0000
0000
FFF0
FFF0
0000
0000
0000
0700
0700
0700
ENDCHAR
STARTCHAR oslash
ENCODING 248
SWIDTH 540 0
DWIDTH 16 0
BBX 12 20 2 -2
BITMAP
00C0
00C0
01C0
1F80
7FE0
73E0
6370
E370
E370
E770
E670
E670
EE70
EC70
6C70
7CE0
7FE0
1F80
3800
3800
ENDCHAR
STARTCHAR ugrave
ENCODING 249
SWIDTH 540 0
DWIDTH 16 0
BBX 10 21 3 0
BITMAP
7800
3800
1C00
0E00
0000
0000
C0C0
C0C0
C0C0
C0C0
C0C0
C0C0
C0C0
C0C0
C0C0
C0C0
C0C0
C0C0
E1C0
7FC0
3FC0
ENDCHAR
STARTCHAR uacute
ENCODING 250
SWIDTH 540 0
DWIDTH 16 0
BBX 10 21 3 0
BITMAP
03C0
0700
0600
0C00
0000
0000
C0C0
C0C0
C0C0
C0C0
C0C0
C0C0
C0C0
C0C0
C0C0
C0C0
C0C0
C0C0
E1C0
7FC0
3FC0
ENDCHAR
STARTCHAR ucircumflex
ENCODING 251
SWIDTH 540 0
DWIDTH 16 0
BBX 10 21 3 0
BITMAP
1E00
3F00
7380
E1C0
0000
0000
C0C0
C0C0
C0C0
C0C0
C0C0
C0C0
C0C0
C0C0
C0C0
C0C0
C0C0
C0C0
E1C0
7FC0
3FC0
ENDCHAR
STARTCHAR udieresis
ENCODING 252
SWIDTH 540 0
DWIDTH 16 0
BBX 10 20 3 0
BITMAP
6180
6180
0000
0000
0000
C0C0
C0C0
C0C0
C0C0
C0C0
C0C0
C0C0
C0C0
C0C0
C0C0
C0C0
C0C0
E1C0
7FC0
3FC0
ENDCHAR
STARTCHAR yacute
ENCODING 253
SWIDTH 540 0
DWIDTH 16 0
BBX 12 26 2 -5
BITMAP
01C0
0380
0700
0E00
0000
0000
E030
E070
6070
7060
70E0
30E0
38C0
38C0
19C0
19C0
1D80
0D80
0F80
0F00
0700
0700
0700
0E00
3E00
3C00
ENDCHAR
STARTCHAR thorn
ENCODING 254
SWIDTH 540 0
DWIDTH 16 0
BBX 11 26 3 -5
BITMAP
C000
C000
C000
C000
C000
C000
DF00
FFC0
E1C0
E0C0
C0E0
C0E0
C0E0
C0E0
C0E0
C0E0
C0E0
C0C0
C1C0
FFC0
FF00
C000
C000
C000
C000
C000
ENDCHAR
STARTCHAR ydieresis
ENCODING 255
SWIDTH 540 0
DWIDTH 16 0
BBX 12 25 2 -5
BITMAP
30C0
30C0
0000
0000
0000
E030
E070
6070
7060
70E0
30E0
38C0
38C0
19C0
19C0
1D80
0D80
0F80
0F00
0700
0700
0700
0E00
3E00
3C00
ENDCHAR
STARTCHAR dotlessi
ENCODING 305
SWIDTH 540 0
DWIDTH 16 0
BBX 12 15 2 0
BITMAP
FE00
FE00
0600
0600
0600
0600
0600
0600
0600
0600
0600
0600
0600
07F0
07F0
ENDCHAR
STARTCHAR Lslash
ENCODING 321
SWIDTH 540 0
DWIDTH 16 0
BBX 12 21 2 0
BITMAP
1C00
1C00
1C00
1C00
1C00
1C80
1D80
1F80
1F00
FC00
FC00
9C00
1C00
1C00
1C00
1C00
1C00
1C00
1C00
1FF0
1FF0
ENDCHAR
STARTCHAR lslash
ENCODING 322
SWIDTH 540 0
DWIDTH 16 0
BBX 12 21 2 0
BITMAP
FE00
FE00
0600
0600
0600
0600
0600
0640
07C0
1FC0
3E00
3600
0600
0600
0600
0600
0600
0600
0600
07F0
03F0
ENDCHAR
STARTCHAR OE
ENCODING 338
SWIDTH 540 0
DWIDTH 16 0
BBX 15 21 1 0
BITMAP
3FFE
7FFE
F3C0
E1C0
C0C0
C0C0
C0C0
C0C0
C0C0
C0FC
C0FC
C0C0
C0C0
C0C0
C0C0
C0C0
C1C0
E1C0
F3C0
7FFE
3FFE
ENDCHAR
STARTCHAR oe
ENCODING 339
SWIDTH 540 0
DWIDTH 16 0
BBX 14 15 1 0
BITMAP
3CF8
FFFC
E7DC
C38C
C38C
C38C
C3FC
C3FC
C380
C380
C380
C380
E7C0
FFFC
3EFC
ENDCHAR
STARTCHAR Scaron
ENCODING 352
SWIDTH 540 0
DWIDTH 16 0
BBX 10 26 3 0
BITMAP
71C0
3B80
1B00
0E00
0000
1FC0
7FC0
F000
E000
E000
E000
E000
E000
E000
7F00
3F80
01C0
01C0
00C0
00C0
00C0
00C0
01C0
03C0
7F80
7E00
ENDCHAR
STARTCHAR scaron
ENCODING 353
SWIDTH 540 0
DWIDTH 16 0
BBX 10 21 3 0
BITMAP
71C0
3B80
1F00
0E00
0000
0000
3F80
7F80
F000
E000
E000
E000
7F00
3F80
0380
0180
0180
0180
0380
FF80
FF00
ENDCHAR
STARTCHAR Ydieresis
ENCODING 376
SWIDTH 540 0
DWIDTH 16 0
BBX 14 24 1 0
BITMAP
1860
1860
0000
E01C
7038
7038
3830
3870
1C60
1CE0
0EC0
0FC0
0780
0780
0300
0300
0300
0300
0300
0300
0300
0300
0300
0300
ENDCHAR
STARTCHAR Zcaron
ENCODING 381
SWIDTH 540 0
DWIDTH 16 0
BBX 11 26 3 0
BITMAP
71C0
3B80
1F00
0E00
0000
FFE0
FFE0
00E0
01C0
01C0
0380
0380
0700
0700
0E00
0E00
1C00
1C00
3800
3800
7000
7000
E000
C000
FFC0
FFC0
ENDCHAR
STARTCHAR zcaron
ENCODING 382
SWIDTH 540 0
DWIDTH 16 0
BBX 10 21 5 0
BITMAP
71C0
3B80
1F00
0E00
0000
0000
7FC0
7FC0
01C0
0380
0780
0700
0E00
1E00
1C00
3800
7800
7000
E000
FFC0
FFC0
ENDCHAR
STARTCHAR florin
ENCODING 402
SWIDTH 540 0
DWIDTH 16 0
BBX 12 26 2 -5
BITMAP
03F0
07F0
0700
0600
0600
0600
3FF0
3FF0
0600
0600
0600
0600
0600
0600
0600
0600
0600
0600
0600
0600
0600
0600
0600
0E00
FE00
FC00
ENDCHAR
STARTCHAR circumflex
ENCODING 710
SWIDTH 540 0
DWIDTH 16 0
BBX 10 4 3 17
BITMAP
1E00
3F00
3380
F3C0
ENDCHAR
STARTCHAR caron
ENCODING 711
SWIDTH 540 0
DWIDTH 16 0
BBX 10 4 3 17
BITMAP
F3C0
3B80
1F00
1E00
ENDCHAR
STARTCHAR uni02C9
ENCODING 713
SWIDTH 540 0
DWIDTH 16 0
BBX 8 2 4 18
BITMAP
FF
FF
ENDCHAR
STARTCHAR breve
ENCODING 728
SWIDTH 540 0
DWIDTH 16 0
BBX 8 4 4 17
BITMAP
C3
E3
7F
3E
ENDCHAR
STARTCHAR dotaccent
ENCODING 729
SWIDTH 540 0
DWIDTH 16 0
BBX 2 2 7 19
BITMAP
C0
C0
ENDCHAR
STARTCHAR ring
ENCODING 730
SWIDTH 540 0
DWIDTH 16 0
BBX 6 6 5 17
BITMAP
78
4C
CC
CC
CC
78
ENDCHAR
STARTCHAR ogonek
ENCODING 731
SWIDTH 540 0
DWIDTH 16 0
BBX 6 7 5 -5
BITMAP
E0
E0
E0
E0
E0
7C
7C
ENDCHAR
STARTCHAR tilde
ENCODING 732
SWIDTH 540 0
DWIDTH 16 0
BBX 8 3 4 18
BITMAP
71
FF
9F
ENDCHAR
STARTCHAR hungarumlaut
ENCODING 733
SWIDTH 540 0
DWIDTH 16 0
BBX 12 4 2 18
BITMAP
1EF0
39E0
71C0
F780
ENDCHAR
STARTCHAR uni03BC
ENCODING 956
SWIDTH 540 0
DWIDTH 16 0
BBX 10 20 3 -5
BITMAP
E0C0
E0C0
E0C0
E0C0
E0C0
E0C0
E0C0
E0C0
E0C0
E0C0
E0C0
E1C0
F1C0
FFC0
FEC0
E000
E000
E000
E000
E000
ENDCHAR
STARTCHAR pi
ENCODING 960
SWIDTH 540 0
DWIDTH 16 0
BBX 14 15 1 0
BITMAP
FFFC
FFFC
1860
1860
1860
1860
1860
1860
1860
1860
1860
1860
1860
1878
1838
ENDCHAR
STARTCHAR endash
ENCODING 8211
SWIDTH 540 0
DWIDTH 16 0
BBX 12 2 2 8
BITMAP
FFF0
FFF0
ENDCHAR
STARTCHAR emdash
ENCODING 8212
SWIDTH 540 0
DWIDTH 16 0
BBX 14 2 1 8
BITMAP
FFFC
FFFC
ENDCHAR
STARTCHAR quoteleft
ENCODING 8216
SWIDTH 540 0
DWIDTH 16 0
BBX 4 7 6 14
BITMAP
30
70
60
60
E0
E0
E0
ENDCHAR
STARTCHAR quoteright
ENCODING 8217
SWIDTH 540 0
DWIDTH 16 0
BBX 4 7 6 14
BITMAP
70
70
70
70
60
60
E0
ENDCHAR
STARTCHAR quotesinglbase
ENCODING 8218
SWIDTH 540 0
DWIDTH 16 0
BBX 4 7 6 -5
BITMAP
70
70
70
70
60
60
E0
ENDCHAR
STARTCHAR quotedblleft
ENCODING 8220
SWIDTH 540 0
DWIDTH 16 0
BBX 8 7 4 14
BITMAP
73
63
67
E7
E6
E6
E6
ENDCHAR
STARTCHAR quotedblright
ENCODING 8221
SWIDTH 540 0
DWIDTH 16 0
BBX 8 7 4 14
BITMAP
77
77
77
67
E7
E6
C6
ENDCHAR
STARTCHAR quotedblbase
ENCODING 8222
SWIDTH 540 0
DWIDTH 16 0
BBX 8 7 4 -5
BITMAP
77
77
77
67
E7
E6
C6
ENDCHAR
STARTCHAR dagger
ENCODING 8224
SWIDTH 540 0
DWIDTH 16 0
BBX 11 21 3 0
BITMAP
0C00
0C00
0C00
0C00
0C00
0C00
FFE0
FFE0
0C00
0C00
0C00
0C00
0C00
0C00
0C00
0C00
0C00
0C00
0C00
0C00
0C00
ENDCHAR
STARTCHAR daggerdbl
ENCODING 8225
SWIDTH 540 0
DWIDTH 16 0
BBX 11 21 3 0
BITMAP
0C00
0C00
0C00
0C00
0C00
0C00
FFE0
FFE0
0C00
0C00
0C00
0C00
0C00
FFE0
FFE0
0C00
0C00
0C00
0C00
0C00
0C00
ENDCHAR
STARTCHAR bullet
ENCODING 8226
SWIDTH 540 0
DWIDTH 16 0
BBX 4 5 6 7
BITMAP
F0
F0
F0
F0
F0
ENDCHAR
STARTCHAR ellipsis
ENCODING 8230
SWIDTH 540 0
DWIDTH 16 0
BBX 14 3 1 0
BITMAP
E39C
E39C
E39C
ENDCHAR
STARTCHAR perthousand
ENCODING 8240
SWIDTH 540 0
DWIDTH 16 0
BBX 16 21 0 0
BITMAP
3C00
7E00
E700
C300
C300
C300
E700
7E00
3C1F
07FF
FFE0
E000
3C3C
7E7E
E767
C3C3
C3C3
C3C3
E767
7E7E
3C3C
ENDCHAR
STARTCHAR guilsinglleft
ENCODING 8249
SWIDTH 540 0
DWIDTH 16 0
BBX 4 12 6 3
BITMAP
30
30
70
60
E0
E0
E0
E0
60
70
30
30
ENDCHAR
STARTCHAR guilsinglright
ENCODING 8250
SWIDTH 540 0
DWIDTH 16 0
BBX 4 12 6 3
BITMAP
C0
C0
60
60
70
70
30
70
60
60
C0
C0
ENDCHAR
STARTCHAR fraction
ENCODING 8260
SWIDTH 540 0
DWIDTH 16 0
BBX 10 28 3 -3
BITMAP
00C0
00C0
01C0
0180
0180
0380
0300
0300
0300
0700
0600
0600
0E00
0C00
0C00
0C00
1C00
1800
1800
1800
3000
3000
3000
7000
6000
6000
6000
E000
ENDCHAR
STARTCHAR Euro
ENCODING 8364
SWIDTH 540 0
DWIDTH 16 0
BBX 11 21 3 0
BITMAP
0FE0
1FE0
3C00
3800
3000
3000
3000
FF80
FF80
3000
3000
3000
FF80
FF80
3000
3000
3000
3800
3C00
1FE0
0FE0
ENDCHAR
STARTCHAR trademark
ENCODING 8482
SWIDTH 540 0
DWIDTH 16 0
BBX 16 15 0 6
BITMAP
FFC7
FFCF
19EF
19EF
19EB
19AB
19BB
19BB
19BB
19B3
1983
1983
1983
1983
1983
ENDCHAR
STARTCHAR Omega
ENCODING 8486
SWIDTH 540 0
DWIDTH 16 0
BBX 14 21 1 0
BITMAP
0FC0
3FF0
3870
7038
7038
7038
7038
7038
7038
7038
7038
7038
7038
7038
7038
7038
7038
7038
3870
FCFC
FCFC
ENDCHAR
STARTCHAR partialdiff
ENCODING 8706
SWIDTH 540 0
DWIDTH 16 0
BBX 10 21 3 0
BITMAP
7F00
7F80
03C0
00C0
00C0
00C0
00C0
00C0
3FC0
7FC0
E0C0
E0C0
C0C0
C0C0
C0C0
C0C0
C0C0
E0C0
F1C0
7F80
3F00
ENDCHAR
STARTCHAR Delta
ENCODING 8710
SWIDTH 540 0
DWIDTH 16 0
BBX 14 21 1 0
BITMAP
0780
0780
0780
07C0
0EC0
0EC0
0CC0
0CE0
1CE0
1C60
1860
1870
1870
3870
3830
3030
3038
7038
7038
7FF8
FFFC
ENDCHAR
STARTCHAR product
ENCODING 8719
SWIDTH 540 0
DWIDTH 16 0
BBX 14 21 1 0
BITMAP
FFFC
FFFC
1860
1860
1860
1860
1860
1860
1860
1860
1860
1860
1860
1860
1860
1860
1860
1860
1860
1878
1838
ENDCHAR
STARTCHAR summation
ENCODING 8721
SWIDTH 540 0
DWIDTH 16 0
BBX 12 26 2 -5
BITMAP
7FF0
7FF0
6000
7000
7000
3800
3800
1C00
1C00
0E00
0E00
0700
0700
0700
0600
0E00
0E00
1C00
1C00
3800
3800
7000
7000
E000
FFF0
FFF0
ENDCHAR
STARTCHAR minus
ENCODING 8722
SWIDTH 540 0
DWIDTH 16 0
BBX 12 3 2 8
BITMAP
FFF0
FFF0
FFF0
ENDCHAR
STARTCHAR uni2215
ENCODING 8725
SWIDTH 540 0
DWIDTH 16 0
BBX 12 27 2 -3
BITMAP
0070
0060
0060
00E0
00C0
00C0
01C0
0180
0180
0380
0300
0300
0700
0600
0E00
0E00
0C00
1C00
1C00
1800
3800
3000
3000
7000
6000
6000
E000
ENDCHAR
STARTCHAR uni2219
ENCODING 8729
SWIDTH 540 0
DWIDTH 16 0
BBX 3 3 7 8
BITMAP
E0
E0
E0
ENDCHAR
STARTCHAR radical
ENCODING 8730
SWIDTH 540 0
DWIDTH 16 0
BBX 15 25 1 0
BITMAP
007E
007E
007E
0060
00E0
00E0
00C0
00C0
01C0
01C0
01C0
0180
0180
C380
E380
E300
E300
6300
7700
7700
7600
3600
3E00
3E00
3E00
ENDCHAR
STARTCHAR infinity
ENCODING 8734
SWIDTH 540 0
DWIDTH 16 0
BBX 16 10 0 4
BITMAP
3E7C
7FFE
63C7
E187
E187
E187
E187
73CE
7FFE
1C38
ENDCHAR
STARTCHAR uni2224
ENCODING 8740
SWIDTH 540 0
DWIDTH 16 0
BBX 3 3 7 8
BITMAP
E0
E0
E0
ENDCHAR
STARTCHAR logicaland
ENCODING 8743
SWIDTH 540 0
DWIDTH 16 0
BBX 3 3 7 8
BITMAP
E0
E0
E0
ENDCHAR
STARTCHAR integral
ENCODING 8747
SWIDTH 540 0
DWIDTH 16 0
BBX 12 32 2 -7
BITMAP
01F0
07F0
07F0
0600
0600
0600
0600
0600
0600
0600
0600
0600
0600
0600
0600
0600
0600
0600
0600
0600
0600
0600
0600
0600
0600
0600
0600
0600
0600
0E00
FE00
FC00
ENDCHAR
STARTCHAR approxequal
ENCODING 8776
SWIDTH 540 0
DWIDTH 16 0
BBX 10 9 3 5
BITMAP
3040
FFC0
FFC0
8380
0000
3040
FEC0
FFC0
8380
ENDCHAR
STARTCHAR notequal
ENCODING 8800
SWIDTH 540 0
DWIDTH 16 0
BBX 12 15 2 2
BITMAP
0070
0060
00C0
FFF0
FFF0
FFF0
0300
0600
0E00
FFF0
FFF0
FFF0
3000
7000
E000
ENDCHAR
STARTCHAR lessequal
ENCODING 8804
SWIDTH 540 0
DWIDTH 16 0
BBX 12 17 2 0
BITMAP
0010
0070
01F0
07C0
3F00
FC00
F000
F000
FE00
1F80
07F0
01F0
0030
0000
0000
FFF0
FFF0
ENDCHAR
STARTCHAR greaterequal
ENCODING 8805
SWIDTH 540 0
DWIDTH 16 0
BBX 12 17 2 0
BITMAP
8000
E000
FC00
3F00
0FC0
03F0
0070
00F0
07F0
1FC0
FE00
F800
C000
0000
0000
FFF0
FFF0
ENDCHAR
STARTCHAR dotmath
ENCODING 8901
SWIDTH 540 0
DWIDTH 16 0
BBX 3 3 7 8
BITMAP
E0
E0
E0
ENDCHAR
STARTCHAR uni25AF
ENCODING 9647
SWIDTH 540 0
DWIDTH 16 0
BBX 11 21 3 0
BITMAP
FFE0
FFE0
C0E0
C0E0
C0E0
C0E0
C0E0
C0E0
C0E0
C0E0
C0E0
C0E0
C0E0
C0E0
C0E0
C0E0
C0E0
C0E0
C0E0
FFE0
FFE0
ENDCHAR
STARTCHAR lozenge
ENCODING 9674
SWIDTH 540 0
DWIDTH 16 0
BBX 12 21 2 0
BITMAP
0F00
0F00
1F80
1D80
19C0
39C0
30C0
70E0
7060
6070
E070
6070
7060
70E0
30C0
39C0
19C0
1D80
1F80
0F00
0F00
ENDCHAR
STARTCHAR uni2620
ENCODING 9760
SWIDTH 540 0
DWIDTH 16 0
BBX 18 15 -1 1
BITMAP
01F000
07F800
07FC00
0FFC00
0FFC00
6CCC80
64CD80
F7FBC0
D73AC0
033000
03F000
0DE400
780FC0
300300
300100
ENDCHAR
STARTCHAR smileface
ENCODING 9786
SWIDTH 540 0
DWIDTH 16 0
BBX 16 16 0 0
BITMAP
07E0
1E78
380C
6006
6426
CE73
C673
C003
C003
C813
CC33
67E6
73C6
381C
1FF8
07E0
ENDCHAR
STARTCHAR invsmileface
ENCODING 9787
SWIDTH 540 0
DWIDTH 16 0
BBX 16 16 0 0
BITMAP
07E0
1FF8
3FFC
7FFE
7BCE
F18F
FBCF
FFFF
FFFF
F7EF
F3CF
799E
7C3E
3FFC
1FF8
07E0
ENDCHAR
STARTCHAR sun
ENCODING 9788
SWIDTH 540 0
DWIDTH 16 0
BBX 16 16 0 0
BITMAP
0180
0180
3184
398C
1FF8
0C30
0818
F81F
F81F
1818
0C30
0FF8
1BCC
3184
0180
0180
ENDCHAR
STARTCHAR female
ENCODING 9792
SWIDTH 540 0
DWIDTH 16 0
BBX 10 16 3 0
BITMAP
1F00
7380
4080
C0C0
C0C0
C0C0
40C0
6180
3F00
0C00
0C00
0C00
7F80
0C00
0C00
0C00
ENDCHAR
STARTCHAR male
ENCODING 9794
SWIDTH 540 0
DWIDTH 16 0
BBX 14 15 1 0
BITMAP
00C0
01FC
001C
0034
0064
00C4
3F84
6380
C180
C080
80C0
C080
C180
7300
1E00
ENDCHAR
STARTCHAR spade
ENCODING 9824
SWIDTH 540 0
DWIDTH 16 0
BBX 14 16 1 0
BITMAP
0300
0780
0FC0
1FE0
3FF0
7FF8
7FF8
FFFC
FFFC
FFFC
7FFC
7B78
0300
0300
7FF8
FFFC
ENDCHAR
STARTCHAR club
ENCODING 9827
SWIDTH 540 0
DWIDTH 16 0
BBX 14 16 1 0
BITMAP
07C0
0FC0
1FE0
0FE0
0FC0
37B0
7FF8
FFFC
FFFC
FFFC
7FFC
3B78
0300
0300
7FF8
FFFC
ENDCHAR
STARTCHAR heart
ENCODING 9829
SWIDTH 540 0
DWIDTH 16 0
BBX 15 16 1 0
BITMAP
7878
FCFC
FFFC
FFFE
FFFE
FFFC
FFFC
7FF8
7FF8
3FF0
1FF0
1FE0
0FC0
0780
0300
0100
ENDCHAR
STARTCHAR diamond
ENCODING 9830
SWIDTH 540 0
DWIDTH 16 0
BBX 12 16 2 0
BITMAP
0200
0600
0F00
1F80
1F80
3FC0
7FE0
7FF0
FFF0
7FE0
3FC0
1FC0
1F80
0F00
0600
0600
ENDCHAR
STARTCHAR musicalnote
ENCODING 9834
SWIDTH 540 0
DWIDTH 16 0
BBX 10 16 3 0
BITMAP
0600
0780
07C0
06C0
0640
0640
0640
0600
0600
0600
0600
0600
7E00
FE00
FC00
FC00
ENDCHAR
STARTCHAR musicalnotedbl
ENCODING 9835
SWIDTH 540 0
DWIDTH 16 0
BBX 16 17 0 0
BITMAP
0007
007F
03FB
0383
0203
0203
0203
0203
0203
0203
0203
021F
027F
7E7F
7E7E
FE3C
7C00
ENDCHAR
STARTCHAR fi
ENCODING 64257
SWIDTH 1080 0
DWIDTH 32 0
BBX 27 21 3 0
BITMAP
0FC00E00
1FC00E00
18000000
18000000
18000000
18000000
FFC0FE00
FFC0FE00
18000E00
18000E00
18000E00
18000E00
18000E00
18000E00
18000E00
18000E00
18000E00
18000E00
18000E00
FF800FE0
FF800FE0
ENDCHAR
STARTCHAR fl
ENCODING 64258
SWIDTH 1080 0
DWIDTH 32 0
BBX 27 21 3 0
BITMAP
0FC1FC00
1FC1FC00
18000C00
18000C00
18000C00
18000C00
FFC00C00
FFC00C00
18000C00
18000C00
18000C00
18000C00
18000C00
18000C00
18000C00
18000C00
18000C00
18000C00
18000C00
FF800FE0
FF8007E0
ENDCHAR
STARTCHAR .notdef
ENCODING -1
SWIDTH 540 0
DWIDTH 16 0
BBX 11 21 3 0
BITMAP
FFE0
FFE0
C0E0
C0E0
C0E0
C0E0
C0E0
C0E0
C0E0
C0E0
C0E0
C0E0
C0E0
C0E0
C0E0
C0E0
C0E0
C0E0
C0E0
FFE0
FFE0
ENDCHAR
ENDFONT
